<svg xmlns="http://www.w3.org/2000/svg" width="264" height="112" fill="none" viewBox="0 0 264 112"><rect width="263" height="111" x=".5" y=".5" fill="#f4f4fd" stroke="#8e8f99" rx="3.5"/><g clip-path="url(#a)"><path fill="#4d5ae5" d="M129.851 53.93h2.132v9.594h-2.132zM138.38 58.194h2.132v5.33h-2.132zM121.322 61.392h2.132v2.132h-2.132zM114.926 60.326h2.132v3.198h-2.132z"/><path fill="#2e2f42" d="M103.198 80.582h51.174a3.2 3.2 0 0 0 3.198-3.198v-4.265a3.2 3.2 0 0 0-3.198-3.198h-1.067V43.334l6.056-5.736a3.217 3.217 0 1 0-1.493-1.526l-4.563 4.325v-2.46a3.2 3.2 0 0 0-3.198-3.198h-42.644a3.2 3.2 0 0 0-3.199 3.199V69.92h-1.066A3.2 3.2 0 0 0 100 73.119v4.265a3.2 3.2 0 0 0 3.198 3.198m57.57-46.909a1.066 1.066 0 1 1 0 2.132 1.066 1.066 0 0 1 0-2.132m-54.371 4.265c0-.59.477-1.067 1.066-1.067h42.644c.589 0 1.066.478 1.066 1.067v4.477l-2.132 2.026V40.07c0-.589-.477-1.066-1.066-1.066h-38.38c-.589 0-1.066.477-1.066 1.066v26.652c0 .59.477 1.067 1.066 1.067h38.38c.589 0 1.066-.478 1.066-1.067V47.375l2.132-2.02V69.92h-44.776zm9.595 13.859a3.198 3.198 0 1 0 2.214 5.497l3.706 1.86c.43.215.953.114 1.273-.246l7.877-8.863 7.744 5.803c.416.311.996.278 1.372-.079l6.731-6.375v16.262h-36.248v-24.52h36.248v5.32l-7.543 7.144-7.809-5.855a1.066 1.066 0 0 0-1.436.145l-7.986 8.985-2.986-1.493q.033-.192.041-.387a3.2 3.2 0 0 0-3.198-3.198m1.066 3.198a1.067 1.067 0 1 1-2.133 0 1.067 1.067 0 0 1 2.133 0m6.396 17.058h10.661v1.066c0 .589-.477 1.066-1.066 1.066h-8.529a1.067 1.067 0 0 1-1.066-1.066zm-21.322 1.066c0-.589.478-1.066 1.066-1.066h18.124v1.066a3.2 3.2 0 0 0 3.198 3.198h8.529a3.2 3.2 0 0 0 3.199-3.198v-1.066h18.124c.588 0 1.066.477 1.066 1.066v4.265c0 .588-.478 1.066-1.066 1.066h-51.174a1.067 1.067 0 0 1-1.066-1.066z"/></g><defs><clipPath id="a"><path fill="#fff" d="M100 24h64v64h-64z"/></clipPath></defs></svg>